<svg width="238" height="67" viewBox="0 0 238 67" fill="none" xmlns="http://www.w3.org/2000/svg">
<path fill-rule="evenodd" clip-rule="evenodd" d="M35 54C46.0457 54 55 45.0457 55 34C55 22.9543 46.0457 14 35 14C23.9543 14 15 22.9543 15 34C15 45.0457 23.9543 54 35 54ZM41.2393 23.3168C41.543 22.238 40.4961 21.6001 39.54 22.2813L26.1931 31.7896C25.1562 32.5283 25.3193 34 26.4381 34H29.9527V33.9728H36.8025L31.2212 35.9421L28.7607 44.6832C28.457 45.762 29.5038 46.3999 30.46 45.7187L43.8069 36.2105C44.8438 35.4718 44.6806 34 43.5619 34H38.2321L41.2393 23.3168Z" fill="#A5839C"/>
<path d="M74.179 31.0994C74.0606 30.7159 73.8973 30.3726 73.6889 30.0696C73.4853 29.7618 73.2391 29.4991 72.9503 29.2812C72.6662 29.0634 72.3395 28.9001 71.9702 28.7912C71.6009 28.6776 71.1984 28.6207 70.7628 28.6207C69.9815 28.6207 69.2855 28.8172 68.6747 29.2102C68.0639 29.6032 67.5833 30.1809 67.233 30.9432C66.8873 31.7008 66.7145 32.6241 66.7145 33.7131C66.7145 34.8116 66.8873 35.742 67.233 36.5043C67.5786 37.2666 68.0592 37.8466 68.6747 38.2443C69.2902 38.6373 70.0052 38.8338 70.8196 38.8338C71.5582 38.8338 72.1974 38.6918 72.7372 38.4077C73.2817 38.1236 73.7008 37.7211 73.9943 37.2003C74.2879 36.6747 74.4347 36.0592 74.4347 35.3537L75.0312 35.446H71.0824V33.3864H76.9844V35.1335C76.9844 36.3788 76.7192 37.456 76.1889 38.3651C75.6586 39.2741 74.9295 39.9749 74.0014 40.4673C73.0734 40.955 72.008 41.1989 70.8054 41.1989C69.4654 41.1989 68.2888 40.8982 67.2756 40.2969C66.267 39.6908 65.4787 38.8314 64.9105 37.7188C64.3471 36.6013 64.0653 35.2756 64.0653 33.7415C64.0653 32.5672 64.2311 31.5185 64.5625 30.5952C64.8987 29.6719 65.3674 28.8883 65.9688 28.2443C66.5701 27.5956 67.2756 27.1032 68.0852 26.767C68.8949 26.4261 69.7756 26.2557 70.7273 26.2557C71.5322 26.2557 72.2827 26.3741 72.9787 26.6108C73.6747 26.8428 74.2926 27.1742 74.8324 27.6051C75.3769 28.036 75.8243 28.5473 76.1747 29.1392C76.5251 29.7311 76.7547 30.3845 76.8636 31.0994H74.179ZM82.5579 41.2202C81.8666 41.2202 81.244 41.0971 80.69 40.8509C80.1407 40.5999 79.7051 40.2306 79.3832 39.7429C79.0659 39.2552 78.9073 38.6539 78.9073 37.9389C78.9073 37.3234 79.021 36.8144 79.2482 36.4119C79.4755 36.0095 79.7856 35.6875 80.1786 35.446C80.5716 35.2045 81.0143 35.0223 81.5067 34.8991C82.0039 34.7713 82.5176 34.679 83.0479 34.6222C83.6871 34.5559 84.2056 34.4967 84.6033 34.4446C85.0011 34.3878 85.2899 34.3026 85.4698 34.1889C85.6545 34.0705 85.7468 33.8883 85.7468 33.642V33.5994C85.7468 33.0644 85.5882 32.6501 85.271 32.3565C84.9537 32.063 84.4968 31.9162 83.9002 31.9162C83.2705 31.9162 82.771 32.0535 82.4016 32.3281C82.0371 32.6027 81.7908 32.9271 81.663 33.3011L79.2624 32.9602C79.4518 32.2973 79.7643 31.7434 80.1999 31.2983C80.6355 30.8485 81.1682 30.5123 81.7979 30.2898C82.4277 30.0625 83.1237 29.9489 83.886 29.9489C84.4116 29.9489 84.9348 30.0104 85.4556 30.1335C85.9764 30.2566 86.4523 30.4602 86.8832 30.7443C87.314 31.0237 87.6597 31.4048 87.9201 31.8878C88.1853 32.3707 88.3178 32.9744 88.3178 33.6989V41H85.8462V39.5014H85.761C85.6048 39.8045 85.3846 40.0885 85.1005 40.3537C84.8211 40.6141 84.4684 40.8248 84.0423 40.9858C83.6209 41.142 83.1261 41.2202 82.5579 41.2202ZM83.2255 39.331C83.7416 39.331 84.189 39.2292 84.5678 39.0256C84.9466 38.8172 85.2378 38.5426 85.4414 38.2017C85.6497 37.8608 85.7539 37.4891 85.7539 37.0866V35.8011C85.6734 35.8674 85.5361 35.929 85.342 35.9858C85.1526 36.0426 84.9395 36.0923 84.7028 36.1349C84.466 36.1776 84.2317 36.2154 83.9996 36.2486C83.7676 36.2817 83.5664 36.3101 83.396 36.3338C83.0124 36.3859 82.6692 36.4711 82.3661 36.5895C82.0631 36.7079 81.824 36.8736 81.6488 37.0866C81.4736 37.295 81.386 37.5649 81.386 37.8963C81.386 38.3698 81.5588 38.7273 81.9045 38.9688C82.2501 39.2102 82.6905 39.331 83.2255 39.331ZM94.9513 41.1918C94.0943 41.1918 93.3273 40.9716 92.6502 40.5312C91.9731 40.0909 91.4381 39.4517 91.0451 38.6136C90.6521 37.7756 90.4556 36.7576 90.4556 35.5597C90.4556 34.3475 90.6545 33.3248 91.0522 32.4915C91.4547 31.6534 91.9968 31.0213 92.6786 30.5952C93.3604 30.1643 94.1204 29.9489 94.9585 29.9489C95.5977 29.9489 96.1232 30.0578 96.5352 30.2756C96.9471 30.4886 97.2738 30.7467 97.5153 31.0497C97.7567 31.348 97.9438 31.6297 98.0763 31.8949H98.1829V26.4545H100.761V41H98.2326V39.2812H98.0763C97.9438 39.5464 97.752 39.8281 97.5011 40.1264C97.2501 40.42 96.9187 40.6709 96.5067 40.8793C96.0948 41.0876 95.5763 41.1918 94.9513 41.1918ZM95.6687 39.0824C96.2132 39.0824 96.6772 38.9356 97.0607 38.642C97.4442 38.3437 97.7354 37.9295 97.9343 37.3991C98.1332 36.8688 98.2326 36.2509 98.2326 35.5455C98.2326 34.84 98.1332 34.2268 97.9343 33.706C97.7402 33.1851 97.4513 32.7803 97.0678 32.4915C96.689 32.2027 96.2227 32.0582 95.6687 32.0582C95.0958 32.0582 94.6175 32.2074 94.234 32.5057C93.8505 32.804 93.5617 33.2159 93.3675 33.7415C93.1734 34.267 93.0763 34.8684 93.0763 35.5455C93.0763 36.2273 93.1734 36.8357 93.3675 37.3707C93.5664 37.901 93.8576 38.3201 94.2411 38.6278C94.6294 38.9309 95.1052 39.0824 95.6687 39.0824ZM108.245 45.3182C107.322 45.3182 106.529 45.1927 105.866 44.9418C105.203 44.6955 104.67 44.3641 104.268 43.9474C103.865 43.5308 103.586 43.0691 103.43 42.5625L105.745 42.0014C105.849 42.2145 106.001 42.4252 106.2 42.6335C106.398 42.8466 106.666 43.0218 107.002 43.1591C107.343 43.3011 107.772 43.3722 108.288 43.3722C109.017 43.3722 109.621 43.1946 110.099 42.8395C110.577 42.4891 110.816 41.9115 110.816 41.1065V39.0398H110.688C110.556 39.3049 110.362 39.5772 110.106 39.8565C109.855 40.1359 109.521 40.3703 109.104 40.5597C108.692 40.7491 108.174 40.8438 107.549 40.8438C106.711 40.8438 105.951 40.6473 105.269 40.2543C104.592 39.8565 104.052 39.2647 103.65 38.4787C103.252 37.688 103.053 36.6984 103.053 35.5099C103.053 34.312 103.252 33.3011 103.65 32.4773C104.052 31.6487 104.594 31.0213 105.276 30.5952C105.958 30.1643 106.718 29.9489 107.556 29.9489C108.195 29.9489 108.721 30.0578 109.133 30.2756C109.549 30.4886 109.881 30.7467 110.127 31.0497C110.373 31.348 110.56 31.6297 110.688 31.8949H110.83V30.0909H113.366V41.1776C113.366 42.1103 113.143 42.8821 112.698 43.4929C112.253 44.1037 111.645 44.5606 110.873 44.8636C110.101 45.1667 109.225 45.3182 108.245 45.3182ZM108.266 38.8267C108.811 38.8267 109.275 38.6941 109.658 38.429C110.042 38.1638 110.333 37.7827 110.532 37.2855C110.731 36.7884 110.83 36.1918 110.83 35.4957C110.83 34.8092 110.731 34.2079 110.532 33.6918C110.338 33.1757 110.049 32.7756 109.665 32.4915C109.287 32.2027 108.82 32.0582 108.266 32.0582C107.693 32.0582 107.215 32.2074 106.832 32.5057C106.448 32.804 106.159 33.2135 105.965 33.7344C105.771 34.2505 105.674 34.8376 105.674 35.4957C105.674 36.1634 105.771 36.7481 105.965 37.25C106.164 37.7472 106.455 38.1354 106.839 38.4148C107.227 38.6894 107.703 38.8267 108.266 38.8267ZM120.83 41.2131C119.737 41.2131 118.792 40.9858 117.996 40.5312C117.206 40.072 116.597 39.4233 116.171 38.5852C115.745 37.7424 115.532 36.7505 115.532 35.6094C115.532 34.4872 115.745 33.5024 116.171 32.6548C116.602 31.8026 117.203 31.1397 117.975 30.6662C118.747 30.188 119.654 29.9489 120.695 29.9489C121.368 29.9489 122.002 30.0578 122.599 30.2756C123.2 30.4886 123.73 30.8201 124.19 31.2699C124.654 31.7197 125.018 32.2926 125.283 32.9886C125.549 33.6799 125.681 34.5038 125.681 35.4602V36.2486H116.739V34.5156H123.217C123.212 34.0232 123.105 33.5852 122.897 33.2017C122.689 32.8134 122.397 32.508 122.023 32.2855C121.654 32.063 121.223 31.9517 120.731 31.9517C120.205 31.9517 119.744 32.0795 119.346 32.3352C118.948 32.5862 118.638 32.9176 118.415 33.3295C118.198 33.7367 118.086 34.1842 118.082 34.6719V36.1847C118.082 36.8191 118.198 37.3636 118.43 37.8182C118.662 38.268 118.986 38.6136 119.403 38.8551C119.819 39.0919 120.307 39.2102 120.866 39.2102C121.24 39.2102 121.578 39.1581 121.881 39.054C122.184 38.9451 122.447 38.7865 122.67 38.5781C122.892 38.3698 123.06 38.1117 123.174 37.804L125.575 38.0739C125.423 38.7083 125.134 39.2623 124.708 39.7358C124.287 40.2045 123.747 40.5691 123.089 40.8295C122.431 41.0852 121.678 41.2131 120.83 41.2131ZM133.304 30.0909V32.0795H127.032V30.0909H133.304ZM128.581 27.4773H131.152V37.7188C131.152 38.0644 131.204 38.3295 131.308 38.5142C131.417 38.6941 131.559 38.8172 131.734 38.8835C131.909 38.9498 132.103 38.983 132.316 38.983C132.477 38.983 132.624 38.9711 132.757 38.9474C132.894 38.9238 132.998 38.9025 133.069 38.8835L133.502 40.8935C133.365 40.9408 133.169 40.9929 132.913 41.0497C132.662 41.1065 132.354 41.1397 131.99 41.1491C131.346 41.1681 130.766 41.071 130.25 40.858C129.734 40.6402 129.324 40.304 129.021 39.8494C128.723 39.3949 128.576 38.8267 128.581 38.1449V27.4773ZM135.298 41V39.3594L142.755 28.6634H135.255V26.4545H146.022V28.0952L138.572 38.7912H146.065V41H135.298ZM153.259 41.2131C152.194 41.2131 151.271 40.9787 150.489 40.5099C149.708 40.0412 149.102 39.3854 148.671 38.5426C148.245 37.6998 148.032 36.715 148.032 35.5881C148.032 34.4612 148.245 33.474 148.671 32.6264C149.102 31.7789 149.708 31.1207 150.489 30.652C151.271 30.1832 152.194 29.9489 153.259 29.9489C154.325 29.9489 155.248 30.1832 156.029 30.652C156.81 31.1207 157.414 31.7789 157.84 32.6264C158.271 33.474 158.487 34.4612 158.487 35.5881C158.487 36.715 158.271 37.6998 157.84 38.5426C157.414 39.3854 156.81 40.0412 156.029 40.5099C155.248 40.9787 154.325 41.2131 153.259 41.2131ZM153.273 39.1534C153.851 39.1534 154.334 38.9948 154.722 38.6776C155.111 38.3556 155.399 37.9247 155.589 37.3849C155.783 36.8452 155.88 36.2438 155.88 35.581C155.88 34.9134 155.783 34.3097 155.589 33.7699C155.399 33.2254 155.111 32.7921 154.722 32.4702C154.334 32.1482 153.851 31.9872 153.273 31.9872C152.682 31.9872 152.189 32.1482 151.796 32.4702C151.408 32.7921 151.117 33.2254 150.923 33.7699C150.733 34.3097 150.638 34.9134 150.638 35.581C150.638 36.2438 150.733 36.8452 150.923 37.3849C151.117 37.9247 151.408 38.3556 151.796 38.6776C152.189 38.9948 152.682 39.1534 153.273 39.1534ZM163.24 34.608V41H160.669V30.0909H163.126V31.9446H163.254C163.505 31.3338 163.905 30.8485 164.454 30.4886C165.008 30.1288 165.692 29.9489 166.507 29.9489C167.26 29.9489 167.915 30.1098 168.474 30.4318C169.038 30.7538 169.473 31.2202 169.781 31.831C170.093 32.4418 170.247 33.1828 170.243 34.054V41H167.672V34.4517C167.672 33.7225 167.482 33.152 167.103 32.7401C166.729 32.3281 166.211 32.1222 165.548 32.1222C165.098 32.1222 164.698 32.2216 164.348 32.4205C164.002 32.6146 163.73 32.8963 163.531 33.2656C163.337 33.6349 163.24 34.0824 163.24 34.608ZM177.686 41.2131C176.592 41.2131 175.647 40.9858 174.852 40.5312C174.061 40.072 173.453 39.4233 173.027 38.5852C172.6 37.7424 172.387 36.7505 172.387 35.6094C172.387 34.4872 172.6 33.5024 173.027 32.6548C173.458 31.8026 174.059 31.1397 174.831 30.6662C175.602 30.188 176.509 29.9489 177.551 29.9489C178.223 29.9489 178.858 30.0578 179.454 30.2756C180.056 30.4886 180.586 30.8201 181.045 31.2699C181.509 31.7197 181.874 32.2926 182.139 32.9886C182.404 33.6799 182.537 34.5038 182.537 35.4602V36.2486H173.595V34.5156H180.072C180.067 34.0232 179.961 33.5852 179.752 33.2017C179.544 32.8134 179.253 32.508 178.879 32.2855C178.51 32.063 178.079 31.9517 177.586 31.9517C177.061 31.9517 176.599 32.0795 176.201 32.3352C175.804 32.5862 175.493 32.9176 175.271 33.3295C175.053 33.7367 174.942 34.1842 174.937 34.6719V36.1847C174.937 36.8191 175.053 37.3636 175.285 37.8182C175.517 38.268 175.842 38.6136 176.258 38.8551C176.675 39.0919 177.163 39.2102 177.721 39.2102C178.095 39.2102 178.434 39.1581 178.737 39.054C179.04 38.9451 179.303 38.7865 179.525 38.5781C179.748 38.3698 179.916 38.1117 180.029 37.804L182.43 38.0739C182.279 38.7083 181.99 39.2623 181.564 39.7358C181.142 40.2045 180.602 40.5691 179.944 40.8295C179.286 41.0852 178.533 41.2131 177.686 41.2131Z" fill="white"/>
</svg>
